<svg width="72" height="72" viewBox="0 0 72 72" fill="none" xmlns="http://www.w3.org/2000/svg">
<rect width="72" height="72" rx="24" fill="url(#paint0_linear_237_5)"/>
<path d="M21.36 46.5L13.352 36.196L21.108 26.732H26.54L17.804 37.008V35.216L26.82 46.5H21.36ZM9.404 46.5V26.732H13.8V46.5H9.404ZM32.014 46.5V43.084H36.662C37.5207 43.084 38.1927 42.832 38.678 42.328C39.1633 41.824 39.406 41.208 39.406 40.48C39.406 39.976 39.294 39.528 39.07 39.136C38.846 38.744 38.5287 38.436 38.118 38.212C37.726 37.988 37.2407 37.876 36.662 37.876H32.014V34.544H36.298C37.026 34.544 37.614 34.3667 38.062 34.012C38.51 33.6387 38.734 33.0787 38.734 32.332C38.734 31.604 38.51 31.0627 38.062 30.708C37.614 30.3347 37.026 30.148 36.298 30.148H32.014V26.732H37.138C38.4073 26.732 39.4807 26.9653 40.358 27.432C41.254 27.8987 41.9353 28.524 42.402 29.308C42.8687 30.092 43.102 30.96 43.102 31.912C43.102 33.1253 42.71 34.152 41.926 34.992C41.142 35.832 39.9847 36.4107 38.454 36.728L38.566 35.244C40.2273 35.5613 41.506 36.2053 42.402 37.176C43.3167 38.1467 43.774 39.3413 43.774 40.76C43.774 41.8427 43.5033 42.8227 42.962 43.7C42.4393 44.5587 41.674 45.24 40.666 45.744C39.6767 46.248 38.482 46.5 37.082 46.5H32.014ZM28.654 46.5V26.732H32.994V46.5H28.654ZM58.5475 46.5L50.5395 36.196L58.2955 26.732H63.7275L54.9915 37.008V35.216L64.0075 46.5H58.5475ZM46.5915 46.5V26.732H50.9875V46.5H46.5915Z" fill="white"/>
<defs>
<linearGradient id="paint0_linear_237_5" x1="36" y1="1.58233e-06" x2="36" y2="72" gradientUnits="userSpaceOnUse">
<stop stop-color="#0084FF"/>
<stop offset="1" stop-color="#004382"/>
</linearGradient>
</defs>
</svg>
