<svg width="100" height="100" viewBox="0 0 100 100" fill="none" xmlns="http://www.w3.org/2000/svg">
<rect width="100" height="100" rx="12" fill="url(#paint0_linear_127_4)"/>
<path d="M24.9583 22L22.225 17.375L24.3 14.5H26.0167L23.9333 17.35L26.7167 22H24.9583ZM20.8 22V14.5H22.3V22H20.8ZM29.5635 22.1667C29.0024 22.1667 28.508 22.05 28.0802 21.8167C27.6524 21.5833 27.3191 21.2639 27.0802 20.8583C26.8413 20.4472 26.7219 19.9778 26.7219 19.45C26.7219 18.9444 26.8385 18.4972 27.0719 18.1083C27.3052 17.7139 27.6191 17.4028 28.0135 17.175C28.4135 16.9472 28.8552 16.8333 29.3385 16.8333C29.833 16.8333 30.2747 16.9472 30.6635 17.175C31.0524 17.3972 31.358 17.7028 31.5802 18.0917C31.808 18.4806 31.9219 18.9222 31.9219 19.4167V19.925H28.8719C28.733 19.925 28.5997 19.9167 28.4719 19.9C28.3441 19.8833 28.2163 19.8639 28.0885 19.8417C28.1552 20.175 28.3191 20.4472 28.5802 20.6583C28.8469 20.8639 29.1858 20.9667 29.5969 20.9667C29.9135 20.9667 30.1969 20.9028 30.4469 20.775C30.7024 20.6472 30.9108 20.4889 31.0719 20.3L31.3885 21.6C31.1385 21.7889 30.8552 21.9306 30.5385 22.025C30.2274 22.1194 29.9024 22.1667 29.5635 22.1667ZM28.0552 18.9667C28.333 18.9056 28.6052 18.875 28.8719 18.875H29.7552C29.9108 18.875 30.058 18.8806 30.1969 18.8917C30.3358 18.9028 30.4663 18.9222 30.5885 18.95C30.5052 18.65 30.3524 18.4139 30.1302 18.2417C29.9135 18.0694 29.6441 17.9833 29.3219 17.9833C29.0163 17.9833 28.7497 18.0722 28.5219 18.25C28.2997 18.4222 28.1441 18.6611 28.0552 18.9667ZM32.7424 22V14H34.1924V22H32.7424ZM35.3206 22V17H36.7706V22H35.3206ZM36.0456 16.275C35.8289 16.275 35.6456 16.2 35.4956 16.05C35.3456 15.9 35.2706 15.7167 35.2706 15.5C35.2706 15.2778 35.3456 15.0944 35.4956 14.95C35.6456 14.8 35.8289 14.725 36.0456 14.725C36.2678 14.725 36.4511 14.8 36.5956 14.95C36.7456 15.0944 36.8206 15.2778 36.8206 15.5C36.8206 15.7167 36.7456 15.9 36.5956 16.05C36.4511 16.2 36.2678 16.275 36.0456 16.275ZM37.8987 22V14H39.3487V22H37.8987ZM40.4768 22V17H41.9268V22H40.4768ZM41.2018 16.275C40.9852 16.275 40.8018 16.2 40.6518 16.05C40.5018 15.9 40.4268 15.7167 40.4268 15.5C40.4268 15.2778 40.5018 15.0944 40.6518 14.95C40.8018 14.8 40.9852 14.725 41.2018 14.725C41.424 14.725 41.6074 14.8 41.7518 14.95C41.9018 15.0944 41.9768 15.2778 41.9768 15.5C41.9768 15.7167 41.9018 15.9 41.7518 16.05C41.6074 16.2 41.424 16.275 41.2018 16.275ZM43.0383 22V17H44.3383V17.55C44.5161 17.3167 44.7355 17.1389 44.9966 17.0167C45.2577 16.8944 45.5383 16.8333 45.8383 16.8333C46.1938 16.8333 46.5244 16.9194 46.8299 17.0917C47.1411 17.2583 47.3911 17.5056 47.5799 17.8333C47.7744 18.1556 47.8716 18.5472 47.8716 19.0083V22H46.4216V19.2C46.4216 18.9222 46.3383 18.675 46.1716 18.4583C46.0049 18.2417 45.7661 18.1333 45.4549 18.1333C45.2049 18.1333 44.9799 18.2194 44.7799 18.3917C44.5855 18.5583 44.4883 18.8222 44.4883 19.1833V22H43.0383ZM51.0576 24.6667C50.6687 24.6667 50.2964 24.6083 49.9409 24.4917C49.5909 24.3806 49.2881 24.2278 49.0326 24.0333L49.3826 22.6C49.5603 22.8389 49.7937 23.0333 50.0826 23.1833C50.3714 23.3389 50.6964 23.4167 51.0576 23.4167C51.5687 23.4167 51.9659 23.2694 52.2492 22.975C52.5326 22.6861 52.6742 22.3139 52.6742 21.8583V21.5083C52.4853 21.7028 52.2576 21.8556 51.9909 21.9667C51.7298 22.0778 51.4409 22.1333 51.1242 22.1333C50.6631 22.1333 50.2437 22.0139 49.8659 21.775C49.4881 21.5361 49.1853 21.2194 48.9576 20.825C48.7353 20.425 48.6242 19.9833 48.6242 19.5C48.6242 19.0167 48.7353 18.575 48.9576 18.175C49.1853 17.775 49.4881 17.4583 49.8659 17.225C50.2437 16.9861 50.6631 16.8667 51.1242 16.8667C51.4464 16.8667 51.7409 16.925 52.0076 17.0417C52.2742 17.1528 52.502 17.3083 52.6909 17.5083V17H53.9409V22.0667C53.9409 22.6111 53.8076 23.0778 53.5409 23.4667C53.2742 23.8556 52.9214 24.1528 52.4826 24.3583C52.0437 24.5639 51.5687 24.6667 51.0576 24.6667ZM51.2992 20.8583C51.5437 20.8583 51.7659 20.7972 51.9659 20.675C52.1659 20.5528 52.3242 20.3889 52.4409 20.1833C52.5631 19.9778 52.6242 19.75 52.6242 19.5C52.6242 19.25 52.5631 19.0222 52.4409 18.8167C52.3242 18.6111 52.1659 18.4472 51.9659 18.325C51.7659 18.2028 51.5437 18.1417 51.2992 18.1417C51.0548 18.1417 50.8326 18.2028 50.6326 18.325C50.4326 18.4472 50.2714 18.6111 50.1492 18.8167C50.0326 19.0222 49.9742 19.25 49.9742 19.5C49.9742 19.75 50.0326 19.9778 50.1492 20.1833C50.2714 20.3889 50.4326 20.5528 50.6326 20.675C50.8326 20.7972 51.0548 20.8583 51.2992 20.8583ZM20.8 38V30.5H23.35C23.95 30.5 24.4944 30.5972 24.9833 30.7917C25.4778 30.9861 25.9028 31.2556 26.2583 31.6C26.6194 31.9389 26.8972 32.3361 27.0917 32.7917C27.2861 33.2472 27.3833 33.7333 27.3833 34.25C27.3833 34.7667 27.2861 35.2528 27.0917 35.7083C26.8972 36.1639 26.6194 36.5639 26.2583 36.9083C25.9028 37.2472 25.4778 37.5139 24.9833 37.7083C24.4944 37.9028 23.95 38 23.35 38H20.8ZM22.25 36.65H23.2167C23.6389 36.65 24.0111 36.5889 24.3333 36.4667C24.6556 36.3389 24.925 36.1667 25.1417 35.95C25.3639 35.7278 25.5306 35.4722 25.6417 35.1833C25.7583 34.8944 25.8167 34.5833 25.8167 34.25C25.8167 33.9167 25.7583 33.6056 25.6417 33.3167C25.5306 33.0222 25.3639 32.7667 25.1417 32.55C24.925 32.3278 24.6556 32.1556 24.3333 32.0333C24.0111 31.9111 23.6389 31.85 23.2167 31.85H22.25V36.65ZM30.3115 38.1667C29.9615 38.1667 29.6309 38.0833 29.3198 37.9167C29.0087 37.7444 28.7559 37.4972 28.5615 37.175C28.3726 36.8472 28.2781 36.4528 28.2781 35.9917V33H29.7281V35.8C29.7281 36.0778 29.8115 36.325 29.9781 36.5417C30.1503 36.7583 30.3892 36.8667 30.6948 36.8667C30.9448 36.8667 31.167 36.7778 31.3615 36.6C31.5615 36.4167 31.6615 36.1556 31.6615 35.8167V33H33.1115V38H31.7948V37.475C31.617 37.6972 31.3976 37.8694 31.1365 37.9917C30.8809 38.1083 30.6059 38.1667 30.3115 38.1667ZM34.2141 38V33H35.5141V33.55C35.6918 33.3167 35.9113 33.1389 36.1724 33.0167C36.4335 32.8944 36.7141 32.8333 37.0141 32.8333C37.3696 32.8333 37.7002 32.9194 38.0057 33.0917C38.3168 33.2583 38.5668 33.5056 38.7557 33.8333C38.9502 34.1556 39.0474 34.5472 39.0474 35.0083V38H37.5974V35.2C37.5974 34.9222 37.5141 34.675 37.3474 34.4583C37.1807 34.2417 36.9418 34.1333 36.6307 34.1333C36.3807 34.1333 36.1557 34.2194 35.9557 34.3917C35.7613 34.5583 35.6641 34.8222 35.6641 35.1833V38H34.2141ZM40.0667 38V33H41.5167V38H40.0667ZM40.7917 32.275C40.575 32.275 40.3917 32.2 40.2417 32.05C40.0917 31.9 40.0167 31.7167 40.0167 31.5C40.0167 31.2778 40.0917 31.0944 40.2417 30.95C40.3917 30.8 40.575 30.725 40.7917 30.725C41.0139 30.725 41.1972 30.8 41.3417 30.95C41.4917 31.0944 41.5667 31.2778 41.5667 31.5C41.5667 31.7167 41.4917 31.9 41.3417 32.05C41.1972 32.2 41.0139 32.275 40.7917 32.275ZM44.8781 38.1333C44.417 38.1333 43.9976 38.0139 43.6198 37.775C43.242 37.5361 42.9392 37.2194 42.7115 36.825C42.4892 36.425 42.3781 35.9833 42.3781 35.5C42.3781 35.0167 42.4892 34.575 42.7115 34.175C42.9392 33.775 43.242 33.4583 43.6198 33.225C43.9976 32.9861 44.417 32.8667 44.8781 32.8667C45.2003 32.8667 45.4948 32.925 45.7615 33.0417C46.0281 33.1528 46.2559 33.3083 46.4448 33.5083V33H47.6948V38H46.4448V37.4917C46.2559 37.6917 46.0281 37.85 45.7615 37.9667C45.4948 38.0778 45.2003 38.1333 44.8781 38.1333ZM45.0531 36.8583C45.2976 36.8583 45.5198 36.7972 45.7198 36.675C45.9198 36.5528 46.0781 36.3889 46.1948 36.1833C46.317 35.9778 46.3781 35.75 46.3781 35.5C46.3781 35.25 46.317 35.0222 46.1948 34.8167C46.0781 34.6111 45.9198 34.4472 45.7198 34.325C45.5198 34.2028 45.2976 34.1417 45.0531 34.1417C44.8087 34.1417 44.5865 34.2028 44.3865 34.325C44.1865 34.4472 44.0253 34.6111 43.9031 34.8167C43.7865 35.0222 43.7281 35.25 43.7281 35.5C43.7281 35.75 43.7865 35.9778 43.9031 36.1833C44.0253 36.3889 44.1865 36.5528 44.3865 36.675C44.5865 36.7972 44.8087 36.8583 45.0531 36.8583ZM22.8083 54.1333C22.3417 54.1333 21.9194 54.0139 21.5417 53.775C21.1639 53.5361 20.8611 53.2194 20.6333 52.825C20.4111 52.425 20.3 51.9833 20.3 51.5C20.3 51.0167 20.4111 50.575 20.6333 50.175C20.8611 49.775 21.1639 49.4583 21.5417 49.225C21.9194 48.9861 22.3417 48.8667 22.8083 48.8667C23.075 48.8667 23.3222 48.9056 23.55 48.9833C23.7778 49.0611 23.9833 49.1722 24.1667 49.3167V46H25.6167V54H24.3667V53.5083C24.1778 53.7028 23.95 53.8556 23.6833 53.9667C23.4167 54.0778 23.125 54.1333 22.8083 54.1333ZM22.975 52.8583C23.2194 52.8583 23.4417 52.7972 23.6417 52.675C23.8417 52.5528 24 52.3889 24.1167 52.1833C24.2389 51.9778 24.3 51.75 24.3 51.5C24.3 51.25 24.2389 51.0222 24.1167 50.8167C24 50.6111 23.8417 50.4472 23.6417 50.325C23.4417 50.2028 23.2194 50.1417 22.975 50.1417C22.7306 50.1417 22.5083 50.2028 22.3083 50.325C22.1083 50.4472 21.9472 50.6111 21.825 50.8167C21.7083 51.0222 21.65 51.25 21.65 51.5C21.65 51.75 21.7083 51.9778 21.825 52.1833C21.9472 52.3889 22.1083 52.5528 22.3083 52.675C22.5083 52.7972 22.7306 52.8583 22.975 52.8583ZM28.9641 54.1333C28.503 54.1333 28.0835 54.0139 27.7057 53.775C27.328 53.5361 27.0252 53.2194 26.7974 52.825C26.5752 52.425 26.4641 51.9833 26.4641 51.5C26.4641 51.0167 26.5752 50.575 26.7974 50.175C27.0252 49.775 27.328 49.4583 27.7057 49.225C28.0835 48.9861 28.503 48.8667 28.9641 48.8667C29.2863 48.8667 29.5807 48.925 29.8474 49.0417C30.1141 49.1528 30.3418 49.3083 30.5307 49.5083V49H31.7807V54H30.5307V53.4917C30.3418 53.6917 30.1141 53.85 29.8474 53.9667C29.5807 54.0778 29.2863 54.1333 28.9641 54.1333ZM29.1391 52.8583C29.3835 52.8583 29.6057 52.7972 29.8057 52.675C30.0057 52.5528 30.1641 52.3889 30.2807 52.1833C30.403 51.9778 30.4641 51.75 30.4641 51.5C30.4641 51.25 30.403 51.0222 30.2807 50.8167C30.1641 50.6111 30.0057 50.4472 29.8057 50.325C29.6057 50.2028 29.3835 50.1417 29.1391 50.1417C28.8946 50.1417 28.6724 50.2028 28.4724 50.325C28.2724 50.4472 28.1113 50.6111 27.9891 50.8167C27.8724 51.0222 27.8141 51.25 27.8141 51.5C27.8141 51.75 27.8724 51.9778 27.9891 52.1833C28.1113 52.3889 28.2724 52.5528 28.4724 52.675C28.6724 52.7972 28.8946 52.8583 29.1391 52.8583ZM32.8948 54V46H34.3448V54H32.8948ZM37.7063 54.1333C37.2451 54.1333 36.8257 54.0139 36.4479 53.775C36.0701 53.5361 35.7674 53.2194 35.5396 52.825C35.3174 52.425 35.2063 51.9833 35.2063 51.5C35.2063 51.0167 35.3174 50.575 35.5396 50.175C35.7674 49.775 36.0701 49.4583 36.4479 49.225C36.8257 48.9861 37.2451 48.8667 37.7063 48.8667C38.0285 48.8667 38.3229 48.925 38.5896 49.0417C38.8563 49.1528 39.084 49.3083 39.2729 49.5083V49H40.5229V54H39.2729V53.4917C39.084 53.6917 38.8563 53.85 38.5896 53.9667C38.3229 54.0778 38.0285 54.1333 37.7063 54.1333ZM37.8813 52.8583C38.1257 52.8583 38.3479 52.7972 38.5479 52.675C38.7479 52.5528 38.9063 52.3889 39.0229 52.1833C39.1451 51.9778 39.2063 51.75 39.2063 51.5C39.2063 51.25 39.1451 51.0222 39.0229 50.8167C38.9063 50.6111 38.7479 50.4472 38.5479 50.325C38.3479 50.2028 38.1257 50.1417 37.8813 50.1417C37.6368 50.1417 37.4146 50.2028 37.2146 50.325C37.0146 50.4472 36.8535 50.6111 36.7313 50.8167C36.6146 51.0222 36.5563 51.25 36.5563 51.5C36.5563 51.75 36.6146 51.9778 36.7313 52.1833C36.8535 52.3889 37.0146 52.5528 37.2146 52.675C37.4146 52.7972 37.6368 52.8583 37.8813 52.8583ZM41.6203 54V49H42.9203V49.55C43.0981 49.3167 43.3175 49.1389 43.5786 49.0167C43.8453 48.8944 44.1231 48.8333 44.412 48.8333C44.7064 48.8333 44.9842 48.8944 45.2453 49.0167C45.5064 49.1389 45.7259 49.3167 45.9036 49.55C46.0981 49.3167 46.3398 49.1389 46.6286 49.0167C46.9175 48.8944 47.2314 48.8333 47.5703 48.8333C47.9259 48.8333 48.2592 48.9167 48.5703 49.0833C48.8814 49.2444 49.1342 49.4833 49.3286 49.8C49.5231 50.1111 49.6203 50.4917 49.6203 50.9417V54H48.1703V51.15C48.1703 50.8833 48.0925 50.6472 47.937 50.4417C47.7814 50.2361 47.5564 50.1333 47.262 50.1333C47.1064 50.1333 46.9564 50.1722 46.812 50.25C46.6731 50.3222 46.5592 50.4333 46.4703 50.5833C46.387 50.7278 46.3453 50.9111 46.3453 51.1333V54H44.8953V51.15C44.8953 50.9722 44.8592 50.8056 44.787 50.65C44.7203 50.4944 44.6175 50.3694 44.4786 50.275C44.3453 50.1806 44.1814 50.1333 43.987 50.1333C43.8314 50.1333 43.6814 50.1722 43.537 50.25C43.3981 50.3222 43.2842 50.4333 43.1953 50.5833C43.112 50.7278 43.0703 50.9111 43.0703 51.1333V54H41.6203ZM20.8 70V62.5H23.35C23.95 62.5 24.4944 62.5972 24.9833 62.7917C25.4778 62.9861 25.9028 63.2556 26.2583 63.6C26.6194 63.9389 26.8972 64.3361 27.0917 64.7917C27.2861 65.2472 27.3833 65.7333 27.3833 66.25C27.3833 66.7667 27.2861 67.2528 27.0917 67.7083C26.8972 68.1639 26.6194 68.5639 26.2583 68.9083C25.9028 69.2472 25.4778 69.5139 24.9833 69.7083C24.4944 69.9028 23.95 70 23.35 70H20.8ZM22.25 68.65H23.2167C23.6389 68.65 24.0111 68.5889 24.3333 68.4667C24.6556 68.3389 24.925 68.1667 25.1417 67.95C25.3639 67.7278 25.5306 67.4722 25.6417 67.1833C25.7583 66.8944 25.8167 66.5833 25.8167 66.25C25.8167 65.9167 25.7583 65.6056 25.6417 65.3167C25.5306 65.0222 25.3639 64.7667 25.1417 64.55C24.925 64.3278 24.6556 64.1556 24.3333 64.0333C24.0111 63.9111 23.6389 63.85 23.2167 63.85H22.25V68.65ZM30.9698 70.1667C30.4087 70.1667 29.9142 70.05 29.4865 69.8167C29.0587 69.5833 28.7253 69.2639 28.4865 68.8583C28.2476 68.4472 28.1281 67.9778 28.1281 67.45C28.1281 66.9444 28.2448 66.4972 28.4781 66.1083C28.7115 65.7139 29.0253 65.4028 29.4198 65.175C29.8198 64.9472 30.2615 64.8333 30.7448 64.8333C31.2392 64.8333 31.6809 64.9472 32.0698 65.175C32.4587 65.3972 32.7642 65.7028 32.9865 66.0917C33.2142 66.4806 33.3281 66.9222 33.3281 67.4167V67.925H30.2781C30.1392 67.925 30.0059 67.9167 29.8781 67.9C29.7503 67.8833 29.6226 67.8639 29.4948 67.8417C29.5615 68.175 29.7253 68.4472 29.9865 68.6583C30.2531 68.8639 30.592 68.9667 31.0031 68.9667C31.3198 68.9667 31.6031 68.9028 31.8531 68.775C32.1087 68.6472 32.317 68.4889 32.4781 68.3L32.7948 69.6C32.5448 69.7889 32.2615 69.9306 31.9448 70.025C31.6337 70.1194 31.3087 70.1667 30.9698 70.1667ZM29.4615 66.9667C29.7392 66.9056 30.0115 66.875 30.2781 66.875H31.1615C31.317 66.875 31.4642 66.8806 31.6031 66.8917C31.742 66.9028 31.8726 66.9222 31.9948 66.95C31.9115 66.65 31.7587 66.4139 31.5365 66.2417C31.3198 66.0694 31.0503 65.9833 30.7281 65.9833C30.4226 65.9833 30.1559 66.0722 29.9281 66.25C29.7059 66.4222 29.5503 66.6611 29.4615 66.9667ZM34.1487 70V62H35.5987V70H34.1487ZM38.9602 70.1333C38.499 70.1333 38.0796 70.0139 37.7018 69.775C37.324 69.5361 37.0213 69.2194 36.7935 68.825C36.5713 68.425 36.4602 67.9833 36.4602 67.5C36.4602 67.0167 36.5713 66.575 36.7935 66.175C37.0213 65.775 37.324 65.4583 37.7018 65.225C38.0796 64.9861 38.499 64.8667 38.9602 64.8667C39.2824 64.8667 39.5768 64.925 39.8435 65.0417C40.1102 65.1528 40.3379 65.3083 40.5268 65.5083V65H41.7768V70H40.5268V69.4917C40.3379 69.6917 40.1102 69.85 39.8435 69.9667C39.5768 70.0778 39.2824 70.1333 38.9602 70.1333ZM39.1352 68.8583C39.3796 68.8583 39.6018 68.7972 39.8018 68.675C40.0018 68.5528 40.1602 68.3889 40.2768 68.1833C40.399 67.9778 40.4602 67.75 40.4602 67.5C40.4602 67.25 40.399 67.0222 40.2768 66.8167C40.1602 66.6111 40.0018 66.4472 39.8018 66.325C39.6018 66.2028 39.3796 66.1417 39.1352 66.1417C38.8907 66.1417 38.6685 66.2028 38.4685 66.325C38.2685 66.4472 38.1074 66.6111 37.9852 66.8167C37.8685 67.0222 37.8102 67.25 37.8102 67.5C37.8102 67.75 37.8685 67.9778 37.9852 68.1833C38.1074 68.3889 38.2685 68.5528 38.4685 68.675C38.6685 68.7972 38.8907 68.8583 39.1352 68.8583ZM42.8742 72.5V65H44.1242V65.4917C44.3187 65.2972 44.5464 65.1444 44.8076 65.0333C45.0742 64.9222 45.3659 64.8667 45.6826 64.8667C46.1492 64.8667 46.5714 64.9861 46.9492 65.225C47.327 65.4583 47.627 65.775 47.8492 66.175C48.077 66.575 48.1909 67.0167 48.1909 67.5C48.1909 67.9833 48.077 68.425 47.8492 68.825C47.627 69.2194 47.327 69.5361 46.9492 69.775C46.5714 70.0139 46.1492 70.1333 45.6826 70.1333C45.4159 70.1333 45.1687 70.0917 44.9409 70.0083C44.7131 69.9306 44.5076 69.8222 44.3242 69.6833V72.5H42.8742ZM45.5159 68.8583C45.7603 68.8583 45.9826 68.7972 46.1826 68.675C46.3826 68.5528 46.5409 68.3889 46.6576 68.1833C46.7798 67.9778 46.8409 67.75 46.8409 67.5C46.8409 67.25 46.7798 67.0222 46.6576 66.8167C46.5409 66.6111 46.3826 66.4472 46.1826 66.325C45.9826 66.2028 45.7603 66.1417 45.5159 66.1417C45.2714 66.1417 45.0492 66.2028 44.8492 66.325C44.6492 66.4472 44.4881 66.6111 44.3659 66.8167C44.2492 67.0222 44.1909 67.25 44.1909 67.5C44.1909 67.75 44.2492 67.9778 44.3659 68.1833C44.4881 68.3889 44.6492 68.5528 44.8492 68.675C45.0492 68.7972 45.2714 68.8583 45.5159 68.8583ZM51.2883 70.1333C50.8272 70.1333 50.4077 70.0139 50.0299 69.775C49.6522 69.5361 49.3494 69.2194 49.1216 68.825C48.8994 68.425 48.7883 67.9833 48.7883 67.5C48.7883 67.0167 48.8994 66.575 49.1216 66.175C49.3494 65.775 49.6522 65.4583 50.0299 65.225C50.4077 64.9861 50.8272 64.8667 51.2883 64.8667C51.6105 64.8667 51.9049 64.925 52.1716 65.0417C52.4383 65.1528 52.6661 65.3083 52.8549 65.5083V65H54.1049V70H52.8549V69.4917C52.6661 69.6917 52.4383 69.85 52.1716 69.9667C51.9049 70.0778 51.6105 70.1333 51.2883 70.1333ZM51.4633 68.8583C51.7077 68.8583 51.9299 68.7972 52.1299 68.675C52.3299 68.5528 52.4883 68.3889 52.6049 68.1833C52.7272 67.9778 52.7883 67.75 52.7883 67.5C52.7883 67.25 52.7272 67.0222 52.6049 66.8167C52.4883 66.6111 52.3299 66.4472 52.1299 66.325C51.9299 66.2028 51.7077 66.1417 51.4633 66.1417C51.2188 66.1417 50.9966 66.2028 50.7966 66.325C50.5966 66.4472 50.4355 66.6111 50.3133 66.8167C50.1966 67.0222 50.1383 67.25 50.1383 67.5C50.1383 67.75 50.1966 67.9778 50.3133 68.1833C50.4355 68.3889 50.5966 68.5528 50.7966 68.675C50.9966 68.7972 51.2188 68.8583 51.4633 68.8583ZM55.2023 70V65H56.5023V65.55C56.6801 65.3167 56.8996 65.1389 57.1607 65.0167C57.4218 64.8944 57.7023 64.8333 58.0023 64.8333C58.3579 64.8333 58.6885 64.9194 58.994 65.0917C59.3051 65.2583 59.5551 65.5056 59.744 65.8333C59.9385 66.1556 60.0357 66.5472 60.0357 67.0083V70H58.5857V67.2C58.5857 66.9222 58.5023 66.675 58.3357 66.4583C58.169 66.2417 57.9301 66.1333 57.619 66.1333C57.369 66.1333 57.144 66.2194 56.944 66.3917C56.7496 66.5583 56.6523 66.8222 56.6523 67.1833V70H55.2023ZM20.8 86V78.5H23.0667C23.5889 78.5 24.0306 78.5778 24.3917 78.7333C24.7583 78.8889 25.0528 79.0944 25.275 79.35C25.4972 79.6 25.6583 79.875 25.7583 80.175C25.8639 80.4694 25.9167 80.7611 25.9167 81.05C25.9167 81.3333 25.8667 81.625 25.7667 81.925C25.6667 82.2194 25.5028 82.4944 25.275 82.75C25.0528 83 24.7611 83.2028 24.4 83.3583C24.0389 83.5139 23.5944 83.5917 23.0667 83.5917H22.25V86H20.8ZM22.25 82.2917H22.9833C23.3389 82.2917 23.6194 82.2306 23.825 82.1083C24.0361 81.9806 24.1861 81.8222 24.275 81.6333C24.3694 81.4444 24.4167 81.25 24.4167 81.05C24.4167 80.8556 24.3722 80.6639 24.2833 80.475C24.1944 80.2806 24.0444 80.1194 23.8333 79.9917C23.6278 79.8639 23.3444 79.8 22.9833 79.8H22.25V82.2917ZM28.6474 86.1667C28.2974 86.1667 27.9668 86.0833 27.6557 85.9167C27.3446 85.7444 27.0918 85.4972 26.8974 85.175C26.7085 84.8472 26.6141 84.4528 26.6141 83.9917V81H28.0641V83.8C28.0641 84.0778 28.1474 84.325 28.3141 84.5417C28.4863 84.7583 28.7252 84.8667 29.0307 84.8667C29.2807 84.8667 29.503 84.7778 29.6974 84.6C29.8974 84.4167 29.9974 84.1556 29.9974 83.8167V81H31.4474V86H30.1307V85.475C29.953 85.6972 29.7335 85.8694 29.4724 85.9917C29.2168 86.1083 28.9418 86.1667 28.6474 86.1667ZM32.5667 86V78H34.0167V86H32.5667ZM37.0615 86.1667C36.7115 86.1667 36.3809 86.0833 36.0698 85.9167C35.7587 85.7444 35.5059 85.4972 35.3115 85.175C35.1226 84.8472 35.0281 84.4528 35.0281 83.9917V81H36.4781V83.8C36.4781 84.0778 36.5615 84.325 36.7281 84.5417C36.9003 84.7583 37.1392 84.8667 37.4448 84.8667C37.6948 84.8667 37.917 84.7778 38.1115 84.6C38.3115 84.4167 38.4115 84.1556 38.4115 83.8167V81H39.8615V86H38.5448V85.475C38.367 85.6972 38.1476 85.8694 37.8865 85.9917C37.6309 86.1083 37.3559 86.1667 37.0615 86.1667ZM40.9641 86V78H42.4141V81.375C42.5918 81.1972 42.7946 81.0639 43.0224 80.975C43.2557 80.8806 43.503 80.8333 43.7641 80.8333C44.1196 80.8333 44.4502 80.9194 44.7557 81.0917C45.0668 81.2583 45.3168 81.5056 45.5057 81.8333C45.7002 82.1556 45.7974 82.5472 45.7974 83.0083V86H44.3474V83.2C44.3474 82.9222 44.2641 82.675 44.0974 82.4583C43.9307 82.2417 43.6918 82.1333 43.3807 82.1333C43.1307 82.1333 42.9057 82.2194 42.7057 82.3917C42.5113 82.5583 42.4141 82.8222 42.4141 83.1833V86H40.9641ZM49.5461 86V78.5H50.9961V80.9H53.1628V78.5H54.6128V86H53.1628V82.25H50.9961V86H49.5461ZM58.2141 86.1333C57.753 86.1333 57.3335 86.0139 56.9557 85.775C56.578 85.5361 56.2752 85.2194 56.0474 84.825C55.8252 84.425 55.7141 83.9833 55.7141 83.5C55.7141 83.0167 55.8252 82.575 56.0474 82.175C56.2752 81.775 56.578 81.4583 56.9557 81.225C57.3335 80.9861 57.753 80.8667 58.2141 80.8667C58.5363 80.8667 58.8307 80.925 59.0974 81.0417C59.3641 81.1528 59.5918 81.3083 59.7807 81.5083V81H61.0307V86H59.7807V85.4917C59.5918 85.6917 59.3641 85.85 59.0974 85.9667C58.8307 86.0778 58.5363 86.1333 58.2141 86.1333ZM58.3891 84.8583C58.6335 84.8583 58.8557 84.7972 59.0557 84.675C59.2557 84.5528 59.4141 84.3889 59.5307 84.1833C59.653 83.9778 59.7141 83.75 59.7141 83.5C59.7141 83.25 59.653 83.0222 59.5307 82.8167C59.4141 82.6111 59.2557 82.4472 59.0557 82.325C58.8557 82.2028 58.6335 82.1417 58.3891 82.1417C58.1446 82.1417 57.9224 82.2028 57.7224 82.325C57.5224 82.4472 57.3613 82.6111 57.2391 82.8167C57.1224 83.0222 57.0641 83.25 57.0641 83.5C57.0641 83.75 57.1224 83.9778 57.2391 84.1833C57.3613 84.3889 57.5224 84.5528 57.7224 84.675C57.9224 84.7972 58.1446 84.8583 58.3891 84.8583ZM62.1281 86V81H63.4281V81.8583C63.6003 81.5694 63.817 81.3472 64.0781 81.1917C64.3448 81.0306 64.6559 80.95 65.0115 80.95L65.3281 82.2333C65.2226 82.2 65.1031 82.1833 64.9698 82.1833C64.5531 82.1833 64.217 82.3194 63.9615 82.5917C63.7059 82.8583 63.5781 83.2417 63.5781 83.7417V86H62.1281ZM65.9768 86V81H67.4268V86H65.9768ZM66.7018 80.275C66.4852 80.275 66.3018 80.2 66.1518 80.05C66.0018 79.9 65.9268 79.7167 65.9268 79.5C65.9268 79.2778 66.0018 79.0944 66.1518 78.95C66.3018 78.8 66.4852 78.725 66.7018 78.725C66.924 78.725 67.1074 78.8 67.2518 78.95C67.4018 79.0944 67.4768 79.2778 67.4768 79.5C67.4768 79.7167 67.4018 79.9 67.2518 80.05C67.1074 80.2 66.924 80.275 66.7018 80.275Z" fill="#F5EEDD"/>
<defs>
<linearGradient id="paint0_linear_127_4" x1="0" y1="0" x2="119.906" y2="60.6342" gradientUnits="userSpaceOnUse">
<stop stop-color="#7AE2CF"/>
<stop offset="0.349638" stop-color="#077A7D"/>
<stop offset="1" stop-color="#06202B"/>
</linearGradient>
</defs>
</svg>
