<svg width="987" height="731" viewBox="0 0 987 731" fill="none" xmlns="http://www.w3.org/2000/svg">
<g clip-path="url(#clip0_115_2929)">
<path d="M893.729 730.852H684.452V724.431C684.452 718.856 686.667 713.51 690.609 709.568C694.552 705.626 699.9 703.411 705.476 703.411H872.705C878.281 703.411 883.629 705.626 887.572 709.568C891.514 713.51 893.729 718.856 893.729 724.431V730.852Z" fill="#F5EEDD"/>
<path d="M784.194 706.709L790.558 704.147C723.968 538.889 730.383 325.148 786.673 146.304C793.36 125.582 793.842 103.358 788.061 82.366C782.279 61.3739 770.486 42.5294 754.133 28.1509C721.46 -1.00023 676.416 -8.10169 636.571 9.61592C597.242 27.1074 591.821 57.575 591.821 87.8943H598.683C598.683 55.53 605.601 30.8985 639.361 15.8841C676.704 -0.720526 718.93 5.93961 749.564 33.2701C764.924 46.7746 776.001 64.474 781.431 84.1906C786.862 103.907 786.409 124.781 780.128 144.244C723.188 325.153 717.149 540.326 784.194 706.709Z" fill="#F5EEDD"/>
<path d="M596.967 189.083C610.23 189.083 620.982 178.333 620.982 165.072C620.982 151.812 610.23 141.062 596.967 141.062C583.703 141.062 572.951 151.812 572.951 165.072C572.951 178.333 583.703 189.083 596.967 189.083Z" fill="#F5EEDD"/>
<path d="M559.981 206.93V161.435H567.057V206.93C569.086 207.751 570.767 209.252 571.811 211.176C572.855 213.1 573.197 215.327 572.779 217.476C572.361 219.624 571.208 221.56 569.519 222.953C567.829 224.345 565.708 225.106 563.519 225.106C561.33 225.106 559.209 224.345 557.519 222.953C555.83 221.56 554.677 219.624 554.259 217.476C553.84 215.327 554.183 213.1 555.227 211.176C556.271 209.252 557.952 207.751 559.981 206.93Z" fill="#F5EEDD"/>
<path d="M525.778 126.483C525.79 116.025 529.951 105.998 537.347 98.6034C544.744 91.2083 554.772 87.0485 565.232 87.0366H630.417C640.881 87.0366 650.916 91.1926 658.315 98.5902C665.714 105.988 669.871 116.021 669.871 126.483C669.871 136.945 665.714 146.978 658.315 154.376C650.916 161.774 640.881 165.93 630.417 165.93H565.232C554.772 165.918 544.744 161.758 537.347 154.363C529.951 146.968 525.79 136.941 525.778 126.483Z" fill="#7AE2CF"/>
<path d="M433.936 374.702C440.48 290.986 473.943 251.098 452.516 226.085C431.992 202.125 374.179 207.074 337.051 230.066C236.906 292.079 200.217 539.238 329.087 659.995C451.547 774.744 683.631 737.992 735.208 644.071C747.243 622.157 756.803 583.74 739.19 560.474C695.462 502.711 536.475 607.335 465.788 541.897C423.897 503.116 430.344 420.646 433.936 374.702Z" fill="#3F3D56"/>
<path d="M510.487 329.17C508.055 330.289 506.155 332.312 505.192 334.81C504.229 337.308 504.279 340.082 505.331 342.544C505.553 343.041 505.815 343.519 506.116 343.972L484.621 372.667L495.347 388.695L520.541 346.204C522.326 344.812 523.6 342.869 524.164 340.677C524.729 338.485 524.551 336.168 523.66 334.088C523.141 332.909 522.396 331.843 521.465 330.953C520.535 330.062 519.438 329.363 518.238 328.896C517.037 328.429 515.757 328.203 514.469 328.231C513.181 328.259 511.911 328.54 510.732 329.058C510.65 329.094 510.568 329.132 510.487 329.17Z" fill="#FFB6B6"/>
<path d="M510.469 378.645C511.876 379.892 507.974 381.431 503.847 379.003C502.665 378.3 502.161 378.008 502.028 378.194C501.697 378.658 503.634 382.081 503.117 389.685C502.798 394.223 495.26 402.755 486.699 411.075C475.126 422.328 461.668 433.182 461.668 433.182L456.944 429.4L407.399 389.685L399.038 378.114C399.804 373.545 400.954 369.048 402.476 364.672C404.572 358.615 407.064 352.702 409.934 346.971C411.474 343.852 413.053 340.88 414.566 338.146L441.11 367.392L463.354 391.888C463.354 391.888 469.831 381.458 474.847 378.618C475.487 378.21 476.215 377.96 476.971 377.888C482.041 377.649 482.346 374.89 476.467 368.878C470.587 362.867 478.006 368.48 483.235 366.862C488.464 365.243 483.235 366.862 484.337 362.814C485.438 358.767 500.104 350.646 500.104 350.646L500.714 351.19L511.797 360.97L514.969 363.77C514.969 363.77 511.505 373.271 510.549 375.274C509.593 377.278 509.076 377.384 510.469 378.645Z" fill="#7AE2CF"/>
<path d="M802.608 562.977L803.148 548.34L746.939 539.292L746.142 560.893L802.608 562.977Z" fill="#FFB6B6"/>
<path d="M792.404 567.384L791.871 543.949L801.891 544.318L818.068 522.654C818.867 521.584 819.987 520.797 821.265 520.408C822.543 520.02 823.911 520.05 825.171 520.494C826.431 520.938 827.515 521.773 828.266 522.877C829.018 523.981 829.396 525.296 829.347 526.631L828.32 554.469L818.231 558.902L828.073 561.141L827.686 571.638L792.404 567.384Z" fill="#2F2E41"/>
<path d="M486.259 568.676L664.293 573.189C664.293 573.189 741.174 577.629 759.212 565.897L778.233 563.496L779.264 535.56C779.264 535.56 767.633 535.646 760.945 532.53C754.257 529.415 758.905 525.603 752.529 529.351C746.153 533.1 746.826 533.55 741.897 531.828C736.967 530.105 510.899 495.654 510.899 495.654L486.259 568.676Z" fill="#2F2E41"/>
<path d="M720.859 556.553L731.213 546.191L696.161 501.335L680.882 516.63L720.859 556.553Z" fill="#FFB6B6"/>
<path d="M710.383 547.538L725.934 529.996L733.028 537.08L759.625 532.198C760.938 531.957 762.295 532.142 763.496 532.726C764.697 533.31 765.68 534.263 766.301 535.445C766.922 536.627 767.149 537.976 766.949 539.297C766.749 540.617 766.132 541.838 765.188 542.783L745.497 562.493L735.086 558.882L740.778 567.217L733.354 574.648L710.383 547.538Z" fill="#2F2E41"/>
<path d="M416.02 471.192L417.789 512.326C419.873 560.751 473.212 590.059 514.573 564.776C515.335 564.31 516.1 563.827 516.867 563.328C516.867 563.328 532.547 559.118 532.071 552.45C531.595 545.783 535.425 542.538 538.815 544.356C542.205 546.175 586.589 483.197 586.589 483.197C586.589 483.197 678.805 529.187 699.148 540.014C699.148 540.014 718.275 510.114 716.888 510.427C715.501 510.74 602.807 431.879 602.807 431.879C602.807 431.879 584.447 413.302 561.673 425.568C561.199 427.369 561.604 427.432 561.604 427.432L486.373 488.722L475.743 468.538L416.02 471.192Z" fill="#2F2E41"/>
<path d="M486.951 419.767C486.809 421.667 486.538 423.555 486.142 425.419C485.6 428.117 484.726 430.738 483.541 433.222C483.541 433.222 483.541 435.995 478.232 445.284C472.923 454.572 479.559 450.592 483.541 457.492C487.522 464.378 483.541 461.207 479.121 465.639C477.849 466.929 476.945 468.536 476.504 470.293C476.063 472.05 476.1 473.893 476.613 475.631C476.613 475.631 419.596 475.671 408.979 471.69C398.361 467.709 395.946 445.284 405.462 443.068C414.964 440.852 402.582 438.649 396.994 433.54C391.407 428.432 402.582 420.072 402.582 420.072C402.582 420.072 397.976 412.124 398.361 385.439C398.415 382.984 398.642 380.537 399.038 378.114C399.804 373.545 400.953 369.048 402.475 364.672C404.572 358.615 407.063 352.702 409.934 346.971C411.474 343.852 413.053 340.88 414.566 338.146C414.805 337.722 415.031 337.31 415.27 336.899C418.15 331.804 420.777 327.637 422.516 324.97C423.857 322.9 424.666 321.732 424.666 321.732L434.328 304.933L466.579 320.047L464.747 344.768L470.308 363.411L472.87 371.997L474.847 378.618L477.9 388.875C477.9 388.875 477.064 388.915 478.059 390.282C482.643 396.376 485.615 403.528 486.699 411.075C487.081 413.956 487.166 416.868 486.951 419.767Z" fill="#7AE2CF"/>
<path d="M580.088 422.43L579.483 422.235L502.292 397.383L530.736 304.083C531.303 302.225 532.284 300.52 533.605 299.096C534.926 297.673 536.554 296.567 538.365 295.864C540.175 295.16 542.122 294.877 544.058 295.035C545.994 295.193 547.87 295.788 549.542 296.776L598.87 325.914C602.775 328.218 605.746 331.821 607.263 336.093C608.781 340.364 608.749 345.033 607.173 349.284L580.088 422.43Z" fill="#2F2E41"/>
<path d="M580.402 428.362L502.59 403.309L531.034 310.01C531.601 308.152 532.582 306.447 533.903 305.023C535.224 303.599 536.852 302.494 538.662 301.79C540.473 301.087 542.42 300.803 544.356 300.962C546.292 301.12 548.167 301.715 549.84 302.703L601.523 328.502C609.288 333.087 609.106 344.955 605.501 354.693L580.402 428.362Z" fill="#7AE2CF"/>
<path d="M572.611 435.115C570.819 436.126 568.837 436.753 566.79 436.956C564.742 437.16 562.675 436.936 560.719 436.298L510.984 420.284C507.168 419.038 503.991 416.349 502.131 412.792C500.271 409.235 499.876 405.092 501.03 401.248L525.965 319.459C526.464 317.825 527.283 316.307 528.376 314.994C529.469 313.681 530.813 312.599 532.329 311.812C533.846 311.025 535.504 310.549 537.207 310.411C538.91 310.273 540.623 310.477 542.247 311.01L593.788 327.93C596.244 328.736 598.513 330.026 600.462 331.724C602.411 333.421 604 335.492 605.134 337.814C606.269 340.136 606.927 342.661 607.07 345.242C607.212 347.822 606.835 350.405 605.963 352.837L579.302 427.151C578.105 430.525 575.729 433.353 572.611 435.115Z" fill="#3F3D56"/>
<path d="M464.756 305.22C484.43 305.22 500.379 289.274 500.379 269.604C500.379 249.933 484.43 233.987 464.756 233.987C445.082 233.987 429.133 249.933 429.133 269.604C429.133 289.274 445.082 305.22 464.756 305.22Z" fill="#FFB6B6"/>
<path d="M344.295 305.756C347.564 312.092 352.925 317.102 359.467 319.936C362.078 321.126 364.823 321.994 367.643 322.523C368.44 319.363 369.716 316.344 371.426 313.569C370.856 316.696 370.856 319.9 371.426 323.028C375.722 323.379 380.044 322.843 384.123 321.452C388.13 320.089 391.764 317.812 394.737 314.801C397.71 311.79 399.94 308.127 401.25 304.104C404.088 294.664 401.031 284.58 400.79 274.726C400.542 264.87 405.223 253.083 415.008 251.864C422.461 250.933 421.539 251.656 426.894 256.919C419.404 265.238 437.664 302.083 447.462 300.455C453.001 299.534 457.078 295.137 458.173 295.289C463.784 309.026 446.907 328.509 460.292 334.905L459.299 333.591C452.293 322.018 473.024 302.473 466.018 290.901C464.065 287.664 462.034 283.869 463.242 280.287C464.389 276.882 470.198 275.805 471.423 278.904C469.431 271.801 474.993 263.464 482.379 262.739C488.941 262.092 488.563 263.962 494.82 265.668C495.619 262.973 496.771 260.396 498.246 258.003C497.747 260.733 497.685 263.525 498.064 266.275C500.32 266.544 502.603 266.061 504.557 264.9C510.335 261.437 510.507 252.498 506.537 247.058C502.561 241.616 495.901 238.929 489.475 236.896C489.416 223.31 452.851 216.806 446.126 229.438C445.434 219.21 433.708 212.32 423.607 214.058C413.505 215.795 405.536 223.893 400.677 232.92C395.82 241.939 393.408 252.038 389.852 261.645C386.296 271.252 381.212 280.832 372.697 286.532C364.182 292.224 351.529 292.742 344.419 285.363C342.798 288.513 341.942 292.002 341.92 295.545C341.899 299.088 342.712 302.586 344.295 305.756Z" fill="#2F2E41"/>
<path d="M380.848 468.628C381.585 468.038 382.384 467.532 383.232 467.118C396.867 460.333 439.269 442.721 472.424 443.444C536.217 444.834 617.402 515.225 598.508 562.494C584.131 598.462 512.654 618.925 460.479 602.559C387.386 579.63 358.535 486.414 380.848 468.628Z" fill="#3F3D56"/>
<path d="M116.016 727.749C95.1715 723.818 76.72 629.926 117.732 583.684C131.783 567.841 149.31 560.945 172.624 554.528C306.814 517.591 409.162 552.793 422.916 561.388C436.639 569.963 460.697 703.111 429.933 721.4C412.624 731.691 378.316 736.836 361.318 724.83C336.306 707.165 378.289 657.403 359.602 626.56C338.397 591.561 226.736 579.771 170.754 614.555C111.027 651.665 234.223 750.045 116.016 727.749Z" fill="#F5EEDD"/>
<path d="M255.383 568.113H175.748C156.089 549.277 142.033 531.123 153.287 516.054C153.287 511.722 155.008 507.568 158.071 504.505C161.135 501.442 165.29 499.722 169.622 499.722H261.509C265.841 499.722 269.996 501.442 273.06 504.505C276.123 507.568 277.844 511.722 277.844 516.054C282.129 533.224 274.474 550.58 255.383 568.113Z" fill="#CCCCCC"/>
<path d="M241.082 479.161C240.326 479.195 239.578 478.997 238.939 478.593C238.3 478.188 237.801 477.597 237.509 476.899C237.217 476.201 237.147 475.431 237.308 474.692C237.469 473.953 237.853 473.281 238.408 472.768L238.661 471.763C238.628 471.683 238.594 471.602 238.561 471.522C237.799 469.725 236.524 468.192 234.894 467.117C233.265 466.042 231.354 465.472 229.401 465.479C227.449 465.486 225.542 466.07 223.92 467.157C222.299 468.245 221.035 469.787 220.287 471.59C217.298 478.787 213.493 485.996 212.556 493.606C212.143 496.969 212.317 500.379 213.07 503.683C206.051 488.373 202.406 471.733 202.382 454.891C202.381 450.665 202.615 446.442 203.086 442.242C203.474 438.799 204.013 435.38 204.703 431.986C208.465 413.57 216.543 396.309 228.274 381.62C233.951 378.523 238.542 373.76 241.429 367.973C242.475 365.893 243.214 363.673 243.624 361.381C242.983 361.465 241.209 351.713 241.692 351.114C240.799 349.76 239.202 349.087 238.227 347.766C233.379 341.194 226.7 342.342 223.213 351.272C215.764 355.031 215.692 361.264 220.262 367.259C223.17 371.074 223.57 376.235 226.121 380.318C225.859 380.654 225.586 380.979 225.323 381.315C220.525 387.484 216.343 394.108 212.837 401.093C213.69 393.268 212.672 385.353 209.868 377.998C207.026 371.144 201.7 365.371 197.009 359.446C191.375 352.328 179.821 355.435 178.829 364.457C178.819 364.544 178.81 364.632 178.801 364.719C179.497 365.112 180.179 365.529 180.847 365.97C181.685 366.53 182.335 367.33 182.71 368.266C183.086 369.201 183.17 370.228 182.952 371.212C182.734 372.197 182.224 373.092 181.488 373.781C180.752 374.47 179.826 374.921 178.829 375.075L178.727 375.09C178.975 377.601 179.414 380.089 180.04 382.533C174.022 405.8 187.013 414.274 205.563 414.655C205.973 414.865 206.372 415.075 206.781 415.274C203.259 425.254 201.05 435.65 200.209 446.2C199.733 452.424 199.761 458.676 200.293 464.895L200.261 464.675C198.917 457.759 195.227 451.519 189.814 447.008C181.775 440.405 170.417 437.974 161.744 432.666C160.822 432.075 159.75 431.759 158.655 431.756C157.559 431.753 156.486 432.064 155.561 432.651C154.637 433.238 153.899 434.078 153.436 435.07C152.973 436.062 152.803 437.167 152.947 438.252C152.959 438.33 152.971 438.407 152.983 438.484C154.276 439.011 155.534 439.617 156.752 440.3C157.449 440.693 158.131 441.11 158.798 441.551C159.636 442.111 160.286 442.911 160.661 443.847C161.037 444.782 161.122 445.809 160.904 446.793C160.685 447.778 160.175 448.673 159.439 449.362C158.704 450.051 157.777 450.502 156.781 450.656L156.678 450.671C156.605 450.682 156.542 450.693 156.468 450.703C158.678 455.977 161.778 460.831 165.634 465.053C169.397 485.364 185.557 487.291 202.844 481.376H202.855C204.751 489.617 207.499 497.638 211.055 505.31H240.348C240.453 504.985 240.547 504.649 240.642 504.323C237.93 504.494 235.208 504.332 232.536 503.841C234.71 501.174 236.883 498.487 239.056 495.821C239.105 495.771 239.15 495.718 239.193 495.663C240.295 494.299 241.408 492.944 242.511 491.58L242.511 491.578C242.57 487.395 242.089 483.221 241.082 479.161Z" fill="#CCCCCC"/>
<path d="M340.995 563.847C341.481 565.261 342.402 566.485 343.627 567.343C344.852 568.201 346.318 568.649 347.813 568.622L377.028 567.87C378.534 567.841 379.99 567.325 381.179 566.399C382.368 565.474 383.225 564.189 383.623 562.736L387.757 518.537C389.224 519.201 390.821 519.529 392.431 519.497C395.255 519.426 397.936 518.236 399.884 516.189C401.831 514.142 402.885 511.405 402.814 508.581C402.743 505.757 401.553 503.076 399.505 501.13C397.458 499.183 394.721 498.129 391.896 498.2C391.252 498.198 390.611 498.264 389.981 498.399C389.297 497.658 388.465 497.07 387.539 496.67C386.614 496.271 385.615 496.07 384.606 496.08L339.668 497.24C339.295 497.254 338.924 497.3 338.56 497.378C337.574 497.561 336.639 497.954 335.818 498.529C334.997 499.104 334.309 499.849 333.8 500.712C333.291 501.575 332.972 502.538 332.866 503.534C332.761 504.531 332.869 505.539 333.186 506.49L340.995 563.847ZM388.605 515.536L391.547 505.004C391.881 503.787 391.889 502.504 391.569 501.283C391.712 501.283 391.838 501.215 391.981 501.215C393.997 501.173 395.948 501.933 397.406 503.328C398.863 504.722 399.708 506.638 399.755 508.654C399.802 510.67 399.048 512.623 397.657 514.084C396.267 515.545 394.354 516.396 392.337 516.449C391.033 516.49 389.743 516.174 388.605 515.536Z" fill="#CCCCCC"/>
<path d="M338.56 497.378C339.517 502.851 350.281 506.699 363.224 506.03C375.126 505.482 384.857 501.304 386.64 496.351C385.98 496.156 385.294 496.065 384.606 496.08L339.668 497.241C339.295 497.254 338.924 497.3 338.56 497.378Z" fill="#F5EEDD"/>
<path d="M553.387 380.222C550.711 380.32 548.179 381.458 546.33 383.393C544.48 385.329 543.459 387.909 543.484 390.586C543.497 391.13 543.556 391.672 543.659 392.206L512.781 410.432L516.519 429.351L556.117 399.812C558.3 399.213 560.224 397.909 561.587 396.102C562.951 394.296 563.678 392.089 563.656 389.826C563.63 388.538 563.352 387.268 562.835 386.088C562.319 384.908 561.575 383.841 560.647 382.949C559.718 382.056 558.623 381.355 557.423 380.886C556.224 380.417 554.944 380.188 553.656 380.213C553.566 380.215 553.476 380.218 553.387 380.222Z" fill="#FFB6B6"/>
<path d="M528.093 423.673C527.267 422.566 526.912 422.103 526.724 422.23C526.24 422.522 526.706 426.431 523.305 433.243C518.517 442.814 468.321 457.472 468.321 457.472L462.141 446.16L434.957 396.447L425.587 356.601C425.259 355.212 425.1 353.788 425.113 352.361C433.467 346.483 442.339 341.377 451.619 337.106C455.327 339.209 458.154 342.577 459.582 346.592L478.295 399.05L485.762 419.994C485.762 419.994 498.934 410.577 503.711 412.306C508.482 414.045 509.837 411.607 506.719 403.799C503.601 395.992 508.281 404.029 513.728 404.539C519.185 405.058 513.728 404.539 516.305 401.226C518.883 397.914 535.549 396.05 535.549 396.05L535.903 396.789L542.361 410.072L544.21 413.888C544.21 413.888 537.363 421.315 535.711 422.795C534.052 424.286 533.539 424.183 534.352 425.882C535.153 427.573 530.961 427.496 528.093 423.673Z" fill="#7AE2CF"/>
</g>
<defs>
<clipPath id="clip0_115_2929">
<rect width="987" height="731" fill="white"/>
</clipPath>
</defs>
</svg>
